<?xml version="1.0" standalone="no"?>
<!DOCTYPE svg PUBLIC "-//W3C//DTD SVG 1.1//EN" "http://www.w3.org/Graphics/SVG/1.1/DTD/svg11.dtd" >
<svg xmlns="http://www.w3.org/2000/svg" xmlns:xlink="http://www.w3.org/1999/xlink" version="1.1">
<metadata>
Created by FontForge 20201107 at Thu Apr 18 08:27:21 2024
 By 
</metadata>
<defs>
<font id="ThisAppealFreeDemo" horiz-adv-x="616" >
  <font-face 
    font-family="This Appeal Free Demo"
    font-weight="400"
    font-stretch="normal"
    units-per-em="2048"
    panose-1="0 0 0 0 0 0 0 0 0 0"
    ascent="1638"
    descent="-410"
    x-height="1438"
    cap-height="1438"
    bbox="-86 -329 1466 1685"
    underline-thickness="0"
    underline-position="0"
    unicode-range="U+000A-2122"
  />
<missing-glyph horiz-adv-x="1079" 
d="M102 1434h875v-1434h-875v1434zM160 1393l379 -633l381 633h-760zM514 717l-369 614v-1231zM541 674l-379 -631h758zM565 717l371 -621v1239z" />
    <glyph glyph-name=".notdef" horiz-adv-x="1079" 
d="M102 1434h875v-1434h-875v1434zM160 1393l379 -633l381 633h-760zM514 717l-369 614v-1231zM541 674l-379 -631h758zM565 717l371 -621v1239z" />
    <glyph glyph-name=".null" horiz-adv-x="0" 
 />
    <glyph glyph-name=".null" horiz-adv-x="0" 
 />
    <glyph glyph-name="nonmarkingreturn" horiz-adv-x="682" 
 />
    <glyph glyph-name="LF" unicode="&#xa;" horiz-adv-x="0" 
 />
    <glyph glyph-name="controlCR" unicode="&#xd;" horiz-adv-x="0" 
 />
    <glyph glyph-name="space" unicode=" " horiz-adv-x="335" 
 />
    <glyph glyph-name="exclam" unicode="!" horiz-adv-x="311" 
d="M238 324h-166v1114h166v-1114zM238 -83h-166v166h166v-166z" />
    <glyph glyph-name="quotedbl" unicode="&#x22;" horiz-adv-x="503" 
d="M219 1090h-166v348h166v-348zM450 1090h-166v348h166v-348z" />
    <glyph glyph-name="numbersign" unicode="#" horiz-adv-x="940" 
d="M885 1054h-158l-21 -129h116v-166h-143l-38 -238l-164 27l34 211h-138l-38 -238l-164 27l34 211h-152v166h178l21 129h-136v166h163l37 231l164 -27l-33 -204h138l38 231l164 -27l-33 -204h131v-166zM538 925l21 129h-139l-20 -129h138z" />
    <glyph glyph-name="dollar" unicode="$" horiz-adv-x="614" 
d="M544 1202v-276h-166v276q0 29 -20.5 49.5t-49.5 20.5t-49.5 -20.5t-20.5 -49.5v-227q0 -82 58 -140l131 -131l63 -76q32 -51 45 -109l9 -83v-283q0 -75 -42.5 -135t-110.5 -86v-101h-166v101q-68 26 -110.5 86t-42.5 135v348h166v-348q0 -29 20.5 -49.5t49.5 -20.5
t49.5 20.5t20.5 49.5v283q0 82 -58 140l-142 142q-74 74 -97 174l-9 83v227q0 75 42.5 135t110.5 86v101h166v-101q68 -26 110.5 -86t42.5 -135z" />
    <glyph glyph-name="percent" unicode="%" horiz-adv-x="1101" 
d="M468 1152q0 -81 -57.5 -138.5t-138.5 -57.5t-138.5 57.5t-57.5 138.5v90q0 81 57.5 138.5t138.5 57.5t138.5 -57.5t57.5 -138.5v-90zM302 1152v90q0 13 -8.5 21.5t-21.5 8.5t-21.5 -8.5t-8.5 -21.5v-90q0 -13 8.5 -21.5t21.5 -8.5t21.5 8.5t8.5 21.5zM831 399
q81 0 138.5 -57.5t57.5 -138.5v-90q0 -81 -57.5 -138.5t-138.5 -57.5t-138.5 57.5t-57.5 138.5v90q0 81 57.5 138.5t138.5 57.5zM861 113v90q0 13 -8.5 21.5t-21.5 8.5t-21.5 -8.5t-8.5 -21.5v-90q0 -13 8.5 -21.5t21.5 -8.5t21.5 8.5t8.5 21.5zM657 1456h171l-382 -1556
h-171z" />
    <glyph glyph-name="ampersand" unicode="&#x26;" horiz-adv-x="716" 
d="M546 837h119v-166h-119v-754h-166v11q-35 -11 -70 -11q-98 0 -167 69.5t-69 166.5v448q0 87 56 153q-56 66 -56 153v295q0 98 69 167t167 69t167 -69t69 -167v-148h-166v148q0 29 -20.5 49.5t-49.5 20.5t-49.5 -20.5t-20.5 -49.5v-295q0 -29 20.5 -49.5t49.5 -20.5h70
v107h166v-107zM380 153v518h-70q-29 0 -49.5 -20.5t-20.5 -49.5v-448q0 -29 20.5 -49.5t49.5 -20.5t49.5 20.5t20.5 49.5z" />
    <glyph glyph-name="quotesingle" unicode="'" horiz-adv-x="274" 
d="M219 1090h-166v348h166v-348z" />
    <glyph glyph-name="parenleft" unicode="(" horiz-adv-x="634" 
d="M232 644q0 -443 235 -814l44 -70l-140 -89l-45 70q-260 411 -260 903q0 263 78.5 510.5t229.5 462.5l47 68l136 -95l-48 -68q-277 -393 -277 -878z" />
    <glyph glyph-name="parenright" unicode=")" horiz-adv-x="634" 
d="M259 1617q151 -215 229.5 -462.5t78.5 -510.5q0 -492 -260 -903l-45 -70l-140 89l44 70q235 371 235 814q0 485 -277 878l-48 68l136 95z" />
    <glyph glyph-name="asterisk" unicode="*" horiz-adv-x="768" 
d="M715 1199l-166 -96l166 -96l-83 -144l-166 96v-192h-166v192l-166 -96l-83 144l166 96l-166 96l83 144l166 -96v191h166v-191l166 96z" />
    <glyph glyph-name="plus" unicode="+" horiz-adv-x="765" 
d="M466 761h252v-166h-252v-253h-166v253h-253v166h253v252h166v-252z" />
    <glyph glyph-name="comma" unicode="," horiz-adv-x="206" 
d="M21 8h166q0 -72 -40 -125.5t-108 -73.5l-79 -23l-46 160l80 23q27 9 27 39z" />
    <glyph glyph-name="hyphen" unicode="-" horiz-adv-x="567" 
d="M524 595h-481v166h481v-166z" />
    <glyph glyph-name="period" unicode="." horiz-adv-x="241" 
d="M203 -83h-166v166h166v-166z" />
    <glyph glyph-name="slash" unicode="/" horiz-adv-x="743" 
d="M496 1459h172l-420 -1561h-172z" />
    <glyph glyph-name="zero" unicode="0" horiz-adv-x="620" 
d="M310 1438q98 0 167 -69t69 -167v-1049q0 -97 -69 -166.5t-167 -69.5t-167 69.5t-69 166.5v1049q0 98 69 167t167 69zM380 153v1049q0 29 -20.5 49.5t-49.5 20.5t-49.5 -20.5t-20.5 -49.5v-1049q0 -29 20.5 -49.5t49.5 -20.5t49.5 20.5t20.5 49.5z" />
    <glyph glyph-name="one" unicode="1" horiz-adv-x="550" 
d="M373 83h153v-166h-473v166h153v1047q-35 -11 -70 -11h-83v166h83q29 0 49.5 20.5t20.5 49.5v83h167v-1355z" />
    <glyph glyph-name="two" unicode="2" horiz-adv-x="606" 
d="M302 1438q98 0 167 -69t69 -167v-445q0 -43 -9 -83q-23 -99 -98 -174l-83 -83l-58 -59l-4 -4q-54 -57 -54 -136v-135h306v-166h-472v301q0 42 9 83q14 59 45 109q18 31 52 65l142 142q58 58 58 140v445q0 29 -20.5 49.5t-49.5 20.5t-49.5 -20.5t-20.5 -49.5v-276h-166
v276q0 98 69 167t167 69z" />
    <glyph glyph-name="three" unicode="3" 
d="M542 1202v-295q0 -86 -57 -153q57 -67 57 -153v-448q0 -97 -69 -166.5t-167 -69.5t-167 69.5t-69 166.5v410h166v-410q0 -29 20.5 -49.5t49.5 -20.5t49.5 20.5t20.5 49.5v448q0 29 -20.5 49.5t-49.5 20.5h-83v166h83q29 0 49.5 20.5t20.5 49.5v295q0 29 -20.5 49.5
t-49.5 20.5t-49.5 -20.5t-20.5 -49.5v-229h-166v229q0 98 69 167t167 69t167 -69t69 -167z" />
    <glyph glyph-name="four" unicode="4" 
d="M378 1161h166v-1244h-166v362h-306v1159h166v-993h140v716z" />
    <glyph glyph-name="five" unicode="5" horiz-adv-x="618" 
d="M546 1438v-166h-306v-242q31 10 70 10q98 0 167 -69t69 -167v-651q0 -97 -69 -166.5t-167 -69.5t-167 69.5t-69 166.5v384h166v-384q0 -29 20.5 -49.5t49.5 -20.5t49.5 20.5t20.5 49.5v651q0 29 -20.5 49.5t-49.5 20.5t-49.5 -20.5t-20.5 -49.5h-166v634h472z" />
    <glyph glyph-name="six" unicode="6" horiz-adv-x="618" 
d="M546 1202v-234h-166v234q0 29 -20.5 49.5t-49.5 20.5t-49.5 -20.5t-20.5 -49.5v-375q31 10 70 10q98 0 167 -69.5t69 -166.5v-448q0 -97 -69 -166.5t-167 -69.5t-167 69.5t-69 166.5v448v1v600q0 98 69 167t167 69t167 -69t69 -167zM310 671q-29 0 -49.5 -20.5
t-20.5 -49.5v-337v-111q0 -29 20.5 -49.5t49.5 -20.5t49.5 20.5t20.5 49.5v448q0 29 -20.5 49.5t-49.5 20.5z" />
    <glyph glyph-name="seven" unicode="7" horiz-adv-x="569" 
d="M56 1438h476v-78l-327 -1443h-170l306 1355h-285v166z" />
    <glyph glyph-name="eight" unicode="8" horiz-adv-x="620" 
d="M546 1202v-294q0 -88 -56 -154q56 -66 56 -153v-448q0 -97 -69 -166.5t-167 -69.5t-167 69.5t-69 166.5v448q0 87 56 153q-56 66 -56 154v294q0 98 69 167t167 69t167 -69t69 -167zM380 153v448q0 29 -20.5 49.5t-49.5 20.5t-49.5 -20.5t-20.5 -49.5v-448
q0 -29 20.5 -49.5t49.5 -20.5t49.5 20.5t20.5 49.5zM380 908v294q0 29 -20.5 49.5t-49.5 20.5t-49.5 -20.5t-20.5 -49.5v-294q0 -29 20.5 -50t49.5 -21t49.5 21t20.5 50z" />
    <glyph glyph-name="nine" unicode="9" horiz-adv-x="618" 
d="M544 1202v-110v-939q0 -97 -69 -166.5t-167 -69.5t-167 69.5t-69 166.5v234h166v-234q0 -29 20.5 -49.5t49.5 -20.5t49.5 20.5t20.5 49.5v376q-35 -11 -70 -11q-98 0 -167 69t-69 167v448q0 98 69 167t167 69t167 -69t69 -167zM378 754v448q0 29 -20.5 49.5t-49.5 20.5
t-49.5 -20.5t-20.5 -49.5v-448q0 -29 20.5 -49.5t49.5 -20.5t49.5 20.5t20.5 49.5z" />
    <glyph glyph-name="colon" unicode=":" horiz-adv-x="274" 
d="M219 286h-166v166h166v-166zM219 903h-166v166h166v-166z" />
    <glyph glyph-name="semicolon" unicode=";" horiz-adv-x="258" 
d="M18 -31q27 9 27 39h167q0 -72 -40 -125.5t-108 -73.5l-80 -23l-45 160zM211 421h-166v166h166v-166z" />
    <glyph glyph-name="less" unicode="&#x3c;" horiz-adv-x="837" 
d="M788 867l-399 -249l399 -250l-88 -141l-467 293l-43 26l-60 38l-54 34l54 34l60 37l43 26l467 293z" />
    <glyph glyph-name="equal" unicode="=" horiz-adv-x="784" 
d="M733 747h-682v166h682v-166zM733 453h-682v167h682v-167z" />
    <glyph glyph-name="greater" unicode="&#x3e;" horiz-adv-x="837" 
d="M707 652l55 -34l-55 -34l-60 -38l-42 -26l-468 -293l-88 141l399 250l-399 249l88 141l468 -293l42 -26z" />
    <glyph glyph-name="question" unicode="?" horiz-adv-x="581" 
d="M290 1438q98 0 167 -69t69 -167q0 -52 -12 -122.5t-25 -124t-38 -145.5q-26 -99 -38.5 -149t-26 -126t-13.5 -128v-83h-167v83q0 62 14.5 147t27.5 138t42 161q70 261 70 349q0 29 -20.5 49.5t-49.5 20.5t-50 -20.5t-21 -49.5v-229h-166v229q0 97 69.5 166.5t167.5 69.5z
M373 -83h-167v166h167v-166z" />
    <glyph glyph-name="at" unicode="@" horiz-adv-x="1095" 
d="M549 1438q97 0 186 -38t153 -102t102 -153t38 -186v-414q0 -85 -59.5 -145t-144.5 -60q-60 0 -112 34q-68 -65 -163 -65q-97 0 -166.5 69.5t-69.5 166.5v295q0 98 69.5 167t166.5 69t166.5 -69t69.5 -167v-295q0 -16 11.5 -27t27.5 -11t27 11t11 27v414
q0 130 -91.5 221.5t-221.5 91.5t-221.5 -91.5t-91.5 -221.5v-563q0 -130 91.5 -221.5t221.5 -91.5q140 0 233 104l55 62l124 -112l-56 -61q-68 -76 -161 -117.5t-195 -41.5q-97 0 -186 38t-153 102t-102 153t-38 186v563q0 97 38 186t102 153t153 102t186 38zM619 545v295
q0 29 -20.5 49.5t-49.5 20.5t-49.5 -20.5t-20.5 -49.5v-295q0 -29 20.5 -49.5t49.5 -20.5t49.5 20.5t20.5 49.5z" />
    <glyph glyph-name="A" unicode="A" 
d="M308 1438q98 0 167 -69t69 -167v-1285h-166v414h-140v-414h-166v1285q0 98 69 167t167 69zM378 497v705q0 29 -20.5 49.5t-49.5 20.5t-49.5 -20.5t-20.5 -49.5v-705h140z" />
    <glyph glyph-name="A" unicode="&#xc5;" 
d="M308 1438q98 0 167 -69t69 -167v-1285h-166v414h-140v-414h-166v1285q0 98 69 167t167 69zM378 497v705q0 29 -20.5 49.5t-49.5 20.5t-49.5 -20.5t-20.5 -49.5v-705h140z" />
    <glyph glyph-name="A" unicode="&#xc4;" 
d="M308 1438q98 0 167 -69t69 -167v-1285h-166v414h-140v-414h-166v1285q0 98 69 167t167 69zM378 497v705q0 29 -20.5 49.5t-49.5 20.5t-49.5 -20.5t-20.5 -49.5v-705h140z" />
    <glyph glyph-name="A" unicode="&#xc3;" 
d="M308 1438q98 0 167 -69t69 -167v-1285h-166v414h-140v-414h-166v1285q0 98 69 167t167 69zM378 497v705q0 29 -20.5 49.5t-49.5 20.5t-49.5 -20.5t-20.5 -49.5v-705h140z" />
    <glyph glyph-name="A" unicode="&#xc2;" 
d="M308 1438q98 0 167 -69t69 -167v-1285h-166v414h-140v-414h-166v1285q0 98 69 167t167 69zM378 497v705q0 29 -20.5 49.5t-49.5 20.5t-49.5 -20.5t-20.5 -49.5v-705h140z" />
    <glyph glyph-name="A" unicode="&#xc1;" 
d="M308 1438q98 0 167 -69t69 -167v-1285h-166v414h-140v-414h-166v1285q0 98 69 167t167 69zM378 497v705q0 29 -20.5 49.5t-49.5 20.5t-49.5 -20.5t-20.5 -49.5v-705h140z" />
    <glyph glyph-name="A" unicode="&#xc0;" 
d="M308 1438q98 0 167 -69t69 -167v-1285h-166v414h-140v-414h-166v1285q0 98 69 167t167 69zM378 497v705q0 29 -20.5 49.5t-49.5 20.5t-49.5 -20.5t-20.5 -49.5v-705h140z" />
    <glyph glyph-name="B" unicode="B" 
d="M548 1208v-314q0 -83 -53 -147q53 -64 53 -147v-453q0 -95 -67.5 -162.5t-162.5 -67.5h-242v1521h242q95 0 162.5 -67.5t67.5 -162.5zM382 147v453q0 26 -19 45t-45 19h-76v-581h76q26 0 45 19t19 45zM382 894v314q0 26 -19 45t-45 19h-76v-442h76q26 0 45 19t19 45z" />
    <glyph glyph-name="C" unicode="C" horiz-adv-x="606" 
d="M542 810h-166v392q0 29 -20.5 49.5t-49.5 20.5t-49.5 -20.5t-20.5 -49.5v-1049q0 -29 20.5 -49.5t49.5 -20.5t49.5 20.5t20.5 49.5v433h166v-433q0 -97 -69 -166.5t-167 -69.5t-167 69.5t-69 166.5v1049q0 98 69 167t167 69t167 -69t69 -167v-392z" />
    <glyph glyph-name="C" unicode="&#xc7;" horiz-adv-x="606" 
d="M542 810h-166v392q0 29 -20.5 49.5t-49.5 20.5t-49.5 -20.5t-20.5 -49.5v-1049q0 -29 20.5 -49.5t49.5 -20.5t49.5 20.5t20.5 49.5v433h166v-433q0 -97 -69 -166.5t-167 -69.5t-167 69.5t-69 166.5v1049q0 98 69 167t167 69t167 -69t69 -167v-392z" />
    <glyph glyph-name="D" unicode="D" horiz-adv-x="618" 
d="M318 1438q95 0 162.5 -67.5t67.5 -162.5v-1061q0 -95 -67.5 -162.5t-162.5 -67.5h-242v1521h242zM382 147v1061q0 26 -19 45t-45 19h-76v-1189h76q26 0 45 19t19 45z" />
    <glyph glyph-name="E" unicode="E" horiz-adv-x="563" 
d="M548 1272h-306v-492h210v-167h-210v-530h306v-166h-472v1521h472v-166z" />
    <glyph glyph-name="E" unicode="&#xcb;" horiz-adv-x="563" 
d="M548 1272h-306v-492h210v-167h-210v-530h306v-166h-472v1521h472v-166z" />
    <glyph glyph-name="E" unicode="&#xca;" horiz-adv-x="563" 
d="M548 1272h-306v-492h210v-167h-210v-530h306v-166h-472v1521h472v-166z" />
    <glyph glyph-name="E" unicode="&#xc9;" horiz-adv-x="563" 
d="M548 1272h-306v-492h210v-167h-210v-530h306v-166h-472v1521h472v-166z" />
    <glyph glyph-name="E" unicode="&#xc8;" horiz-adv-x="563" 
d="M548 1272h-306v-492h210v-167h-210v-530h306v-166h-472v1521h472v-166z" />
    <glyph glyph-name="F" unicode="F" horiz-adv-x="548" 
d="M548 1272h-306v-492h210v-167h-210v-696h-166v1521h472v-166z" />
    <glyph glyph-name="G" unicode="G" horiz-adv-x="608" 
d="M542 1202v-298h-166v298q0 29 -20.5 49.5t-49.5 20.5t-49.5 -20.5t-20.5 -49.5v-1049q0 -29 20.5 -49.5t49.5 -20.5t49.5 20.5t20.5 49.5v408h-79v166h245v-574q0 -97 -69 -166.5t-167 -69.5t-167 69.5t-69 166.5v1049q0 98 69 167t167 69t167 -69t69 -167z" />
    <glyph glyph-name="H" unicode="H" horiz-adv-x="624" 
d="M382 1438h166v-1521h-166v644h-140v-644h-166v1521h166v-711h140v711z" />
    <glyph glyph-name="I" unicode="I" horiz-adv-x="317" 
d="M242 -83h-166v1521h166v-1521z" />
    <glyph glyph-name="I" unicode="&#xcf;" horiz-adv-x="317" 
d="M242 -83h-166v1521h166v-1521z" />
    <glyph glyph-name="I" unicode="&#xce;" horiz-adv-x="317" 
d="M242 -83h-166v1521h166v-1521z" />
    <glyph glyph-name="I" unicode="&#xcd;" horiz-adv-x="317" 
d="M242 -83h-166v1521h166v-1521z" />
    <glyph glyph-name="I" unicode="&#xcc;" horiz-adv-x="317" 
d="M242 -83h-166v1521h166v-1521z" />
    <glyph glyph-name="J" unicode="J" horiz-adv-x="569" 
d="M176 1438h319v-1285q0 -97 -69.5 -166.5t-166.5 -69.5t-166.5 69.5t-69.5 166.5v433h166v-433q0 -29 20.5 -49.5t49.5 -20.5t49.5 20.5t20.5 49.5v1119h-153v166z" />
    <glyph glyph-name="K" unicode="K" horiz-adv-x="622" 
d="M548 1438v-580q0 -83 -53 -147q53 -64 53 -147v-647h-166v647q0 26 -19 45t-45 19h-76v-711h-166v1521h166v-644h76q26 0 45 19t19 45v580h166z" />
    <glyph glyph-name="L" unicode="L" horiz-adv-x="530" 
d="M242 83h306v-166h-472v1521h166v-1355z" />
    <glyph glyph-name="M" unicode="M" horiz-adv-x="923" 
d="M614 1438q98 0 167.5 -69.5t69.5 -166.5v-1285h-166v1285q0 29 -21 49.5t-50 20.5t-49.5 -20.5t-20.5 -49.5v-1285h-166v1285q0 29 -20.5 49.5t-49.5 20.5t-49.5 -20.5t-20.5 -49.5v-1285h-166v1285q0 98 69 167t167 69q87 0 153 -56q66 56 153 56z" />
    <glyph glyph-name="N" unicode="N" horiz-adv-x="620" 
d="M312 1438q98 0 167 -69t69 -167v-1285h-166v1285q0 29 -20.5 49.5t-49.5 20.5t-49.5 -20.5t-20.5 -49.5v-1285h-166v1521h166v-10q31 10 70 10z" />
    <glyph glyph-name="N" unicode="&#xd1;" horiz-adv-x="620" 
d="M312 1438q98 0 167 -69t69 -167v-1285h-166v1285q0 29 -20.5 49.5t-49.5 20.5t-49.5 -20.5t-20.5 -49.5v-1285h-166v1521h166v-10q31 10 70 10z" />
    <glyph glyph-name="O" unicode="O" horiz-adv-x="612" 
d="M306 1438q98 0 167 -69t69 -167v-1049q0 -97 -69 -166.5t-167 -69.5t-167 69.5t-69 166.5v1049q0 98 69 167t167 69zM376 153v1049q0 29 -20.5 49.5t-49.5 20.5t-49.5 -20.5t-20.5 -49.5v-1049q0 -29 20.5 -49.5t49.5 -20.5t49.5 20.5t20.5 49.5z" />
    <glyph glyph-name="O" unicode="&#xd8;" horiz-adv-x="612" 
d="M306 1438q98 0 167 -69t69 -167v-1049q0 -97 -69 -166.5t-167 -69.5t-167 69.5t-69 166.5v1049q0 98 69 167t167 69zM376 153v1049q0 29 -20.5 49.5t-49.5 20.5t-49.5 -20.5t-20.5 -49.5v-1049q0 -29 20.5 -49.5t49.5 -20.5t49.5 20.5t20.5 49.5z" />
    <glyph glyph-name="O" unicode="&#xd6;" horiz-adv-x="612" 
d="M306 1438q98 0 167 -69t69 -167v-1049q0 -97 -69 -166.5t-167 -69.5t-167 69.5t-69 166.5v1049q0 98 69 167t167 69zM376 153v1049q0 29 -20.5 49.5t-49.5 20.5t-49.5 -20.5t-20.5 -49.5v-1049q0 -29 20.5 -49.5t49.5 -20.5t49.5 20.5t20.5 49.5z" />
    <glyph glyph-name="O" unicode="&#xd5;" horiz-adv-x="612" 
d="M306 1438q98 0 167 -69t69 -167v-1049q0 -97 -69 -166.5t-167 -69.5t-167 69.5t-69 166.5v1049q0 98 69 167t167 69zM376 153v1049q0 29 -20.5 49.5t-49.5 20.5t-49.5 -20.5t-20.5 -49.5v-1049q0 -29 20.5 -49.5t49.5 -20.5t49.5 20.5t20.5 49.5z" />
    <glyph glyph-name="O" unicode="&#xd4;" horiz-adv-x="612" 
d="M306 1438q98 0 167 -69t69 -167v-1049q0 -97 -69 -166.5t-167 -69.5t-167 69.5t-69 166.5v1049q0 98 69 167t167 69zM376 153v1049q0 29 -20.5 49.5t-49.5 20.5t-49.5 -20.5t-20.5 -49.5v-1049q0 -29 20.5 -49.5t49.5 -20.5t49.5 20.5t20.5 49.5z" />
    <glyph glyph-name="O" unicode="&#xd3;" horiz-adv-x="612" 
d="M306 1438q98 0 167 -69t69 -167v-1049q0 -97 -69 -166.5t-167 -69.5t-167 69.5t-69 166.5v1049q0 98 69 167t167 69zM376 153v1049q0 29 -20.5 49.5t-49.5 20.5t-49.5 -20.5t-20.5 -49.5v-1049q0 -29 20.5 -49.5t49.5 -20.5t49.5 20.5t20.5 49.5z" />
    <glyph glyph-name="O" unicode="&#xd2;" horiz-adv-x="612" 
d="M306 1438q98 0 167 -69t69 -167v-1049q0 -97 -69 -166.5t-167 -69.5t-167 69.5t-69 166.5v1049q0 98 69 167t167 69zM376 153v1049q0 29 -20.5 49.5t-49.5 20.5t-49.5 -20.5t-20.5 -49.5v-1049q0 -29 20.5 -49.5t49.5 -20.5t49.5 20.5t20.5 49.5z" />
    <glyph glyph-name="P" unicode="P" horiz-adv-x="593" 
d="M318 1438q95 0 162.5 -67.5t67.5 -162.5v-636q0 -95 -67.5 -162.5t-162.5 -67.5h-76v-425h-166v1521h242zM382 572v636q0 26 -19 45t-45 19h-76v-764h76q26 0 45 19t19 45z" />
    <glyph glyph-name="Q" unicode="Q" horiz-adv-x="614" 
d="M542 1202v-1049q0 -39 -10 -70h10v-166h-237q-98 1 -166.5 70t-68.5 166v1049q0 98 69 167t167 69t167 -69t69 -167zM376 153v1049q0 29 -20.5 49.5t-49.5 20.5t-49.5 -20.5t-20.5 -49.5v-1049q0 -29 20.5 -49.5t49.5 -20.5t49.5 20.5t20.5 49.5z" />
    <glyph glyph-name="R" unicode="R" horiz-adv-x="618" 
d="M548 1208v-417q0 -83 -53 -147q53 -64 53 -147v-580h-166v580q0 26 -19 45t-45 19h-76v-644h-166v1521h242q95 0 162.5 -67.5t67.5 -162.5zM382 791v417q0 26 -19 45t-45 19h-76v-545h76q26 0 45 19t19 45z" />
    <glyph glyph-name="S" unicode="S" horiz-adv-x="589" 
d="M532 926h-166v276q0 29 -20.5 49.5t-49.5 20.5t-49.5 -20.5t-20.5 -49.5v-227q0 -83 57 -140l142 -142q30 -30 52 -65q32 -51 45 -109q10 -45 10 -83v-283q0 -97 -69 -166.5t-167 -69.5t-167.5 69.5t-69.5 166.5v348h167v-348q0 -29 20.5 -49.5t49.5 -20.5t49.5 20.5
t20.5 49.5v283q0 82 -58 140l-59 59l-83 83q-74 74 -97 174q-10 45 -10 83v227q0 97 69.5 166.5t167.5 69.5t167 -69t69 -167v-276z" />
    <glyph glyph-name="T" unicode="T" horiz-adv-x="481" 
d="M4 1438h473v-166h-154v-1355h-166v1355h-153v166z" />
    <glyph glyph-name="U" unicode="U" horiz-adv-x="620" 
d="M380 1438h166v-1285q0 -97 -69 -166.5t-167 -69.5t-167 69.5t-69 166.5v1285h166v-1285q0 -29 20.5 -49.5t49.5 -20.5t49.5 20.5t20.5 49.5v1285z" />
    <glyph glyph-name="U" unicode="&#xdc;" horiz-adv-x="620" 
d="M380 1438h166v-1285q0 -97 -69 -166.5t-167 -69.5t-167 69.5t-69 166.5v1285h166v-1285q0 -29 20.5 -49.5t49.5 -20.5t49.5 20.5t20.5 49.5v1285z" />
    <glyph glyph-name="U" unicode="&#xdb;" horiz-adv-x="620" 
d="M380 1438h166v-1285q0 -97 -69 -166.5t-167 -69.5t-167 69.5t-69 166.5v1285h166v-1285q0 -29 20.5 -49.5t49.5 -20.5t49.5 20.5t20.5 49.5v1285z" />
    <glyph glyph-name="U" unicode="&#xda;" horiz-adv-x="620" 
d="M380 1438h166v-1285q0 -97 -69 -166.5t-167 -69.5t-167 69.5t-69 166.5v1285h166v-1285q0 -29 20.5 -49.5t49.5 -20.5t49.5 20.5t20.5 49.5v1285z" />
    <glyph glyph-name="U" unicode="&#xd9;" horiz-adv-x="620" 
d="M380 1438h166v-1285q0 -97 -69 -166.5t-167 -69.5t-167 69.5t-69 166.5v1285h166v-1285q0 -29 20.5 -49.5t49.5 -20.5t49.5 20.5t20.5 49.5v1285z" />
    <glyph glyph-name="V" unicode="V" 
d="M378 1438h166v-1205q0 -115 -80 -195l-156 -155l-156 155q-80 80 -80 195v1205h166v-1205q0 -45 32 -77l38 -38l38 38q32 32 32 77v1205z" />
    <glyph glyph-name="W" unicode="W" horiz-adv-x="927" 
d="M687 1443h166v-1286q0 -97 -69.5 -166.5t-167.5 -69.5q-86 0 -153 57q-67 -57 -153 -57q-98 0 -167 69.5t-69 166.5v1286h166v-1286q0 -29 20.5 -49.5t49.5 -20.5t49.5 20.5t20.5 49.5v1286h166v-1286q0 -29 20.5 -49.5t49.5 -20.5t50 20.5t21 49.5v1286z" />
    <glyph glyph-name="X" unicode="X" horiz-adv-x="620" 
d="M546 1438v-428q0 -87 -56 -153q56 -66 56 -153v-787h-166v787q0 29 -20.5 49.5t-49.5 20.5t-49.5 -20.5t-20.5 -49.5v-787h-166v787q0 87 56 153q-56 66 -56 153v428h166v-428q0 -29 20.5 -49.5t49.5 -20.5t49.5 20.5t20.5 49.5v428h166z" />
    <glyph glyph-name="Y" unicode="Y" horiz-adv-x="614" 
d="M374 1438h166v-1286q0 -98 -69 -167t-167 -69t-167 69t-69 167v231h166v-231q0 -29 20.5 -49.5t49.5 -20.5t49.5 20.5t20.5 49.5v343q-35 -11 -70 -11q-97 0 -166.5 69.5t-69.5 167.5v717h166v-717q0 -29 20.5 -49.5t49.5 -20.5t49.5 20.5t20.5 49.5v717z" />
    <glyph glyph-name="Y" unicode="&#x178;" horiz-adv-x="614" 
d="M374 1438h166v-1286q0 -98 -69 -167t-167 -69t-167 69t-69 167v231h166v-231q0 -29 20.5 -49.5t49.5 -20.5t49.5 20.5t20.5 49.5v343q-35 -11 -70 -11q-97 0 -166.5 69.5t-69.5 167.5v717h166v-717q0 -29 20.5 -49.5t49.5 -20.5t49.5 20.5t20.5 49.5v717z" />
    <glyph glyph-name="Y" unicode="&#xdd;" horiz-adv-x="614" 
d="M374 1438h166v-1286q0 -98 -69 -167t-167 -69t-167 69t-69 167v231h166v-231q0 -29 20.5 -49.5t49.5 -20.5t49.5 20.5t20.5 49.5v343q-35 -11 -70 -11q-97 0 -166.5 69.5t-69.5 167.5v717h166v-717q0 -29 20.5 -49.5t49.5 -20.5t49.5 20.5t20.5 49.5v717z" />
    <glyph glyph-name="Z" unicode="Z" horiz-adv-x="526" 
d="M514 1438l-306 -1355h285v-166h-493l306 1355h-285v166h493z" />
    <glyph glyph-name="bracketleft" unicode="[" horiz-adv-x="491" 
d="M415 1384h-173v-1413h173v-166h-339v1745h339v-166z" />
    <glyph glyph-name="backslash" unicode="\" horiz-adv-x="743" 
d="M248 1459l420 -1561h-172l-420 1561h172z" />
    <glyph glyph-name="bracketright" unicode="]" horiz-adv-x="491" 
d="M76 1550h339v-1745h-339v166h173v1413h-173v166z" />
    <glyph glyph-name="underscore" unicode="_" horiz-adv-x="720" 
d="M683 -83h-646v166h646v-166z" />
    <glyph glyph-name="a" unicode="a" 
d="M308 1438q98 0 167 -69t69 -167v-1285h-166v414h-140v-414h-166v1285q0 98 69 167t167 69zM378 497v705q0 29 -20.5 49.5t-49.5 20.5t-49.5 -20.5t-20.5 -49.5v-705h140z" />
    <glyph glyph-name="a" unicode="&#xe5;" 
d="M308 1438q98 0 167 -69t69 -167v-1285h-166v414h-140v-414h-166v1285q0 98 69 167t167 69zM378 497v705q0 29 -20.5 49.5t-49.5 20.5t-49.5 -20.5t-20.5 -49.5v-705h140z" />
    <glyph glyph-name="a" unicode="&#xe4;" 
d="M308 1438q98 0 167 -69t69 -167v-1285h-166v414h-140v-414h-166v1285q0 98 69 167t167 69zM378 497v705q0 29 -20.5 49.5t-49.5 20.5t-49.5 -20.5t-20.5 -49.5v-705h140z" />
    <glyph glyph-name="a" unicode="&#xe3;" 
d="M308 1438q98 0 167 -69t69 -167v-1285h-166v414h-140v-414h-166v1285q0 98 69 167t167 69zM378 497v705q0 29 -20.5 49.5t-49.5 20.5t-49.5 -20.5t-20.5 -49.5v-705h140z" />
    <glyph glyph-name="a" unicode="&#xe2;" 
d="M308 1438q98 0 167 -69t69 -167v-1285h-166v414h-140v-414h-166v1285q0 98 69 167t167 69zM378 497v705q0 29 -20.5 49.5t-49.5 20.5t-49.5 -20.5t-20.5 -49.5v-705h140z" />
    <glyph glyph-name="a" unicode="&#xe1;" 
d="M308 1438q98 0 167 -69t69 -167v-1285h-166v414h-140v-414h-166v1285q0 98 69 167t167 69zM378 497v705q0 29 -20.5 49.5t-49.5 20.5t-49.5 -20.5t-20.5 -49.5v-705h140z" />
    <glyph glyph-name="a" unicode="&#xe0;" 
d="M308 1438q98 0 167 -69t69 -167v-1285h-166v414h-140v-414h-166v1285q0 98 69 167t167 69zM378 497v705q0 29 -20.5 49.5t-49.5 20.5t-49.5 -20.5t-20.5 -49.5v-705h140z" />
    <glyph glyph-name="b" unicode="b" 
d="M548 1208v-314q0 -83 -53 -147q53 -64 53 -147v-453q0 -95 -67.5 -162.5t-162.5 -67.5h-242v1521h242q95 0 162.5 -67.5t67.5 -162.5zM382 147v453q0 26 -19 45t-45 19h-76v-581h76q26 0 45 19t19 45zM382 894v314q0 26 -19 45t-45 19h-76v-442h76q26 0 45 19t19 45z" />
    <glyph glyph-name="c" unicode="c" horiz-adv-x="606" 
d="M542 810h-166v392q0 29 -20.5 49.5t-49.5 20.5t-49.5 -20.5t-20.5 -49.5v-1049q0 -29 20.5 -49.5t49.5 -20.5t49.5 20.5t20.5 49.5v433h166v-433q0 -97 -69 -166.5t-167 -69.5t-167 69.5t-69 166.5v1049q0 98 69 167t167 69t167 -69t69 -167v-392z" />
    <glyph glyph-name="c" unicode="&#xe7;" horiz-adv-x="606" 
d="M542 810h-166v392q0 29 -20.5 49.5t-49.5 20.5t-49.5 -20.5t-20.5 -49.5v-1049q0 -29 20.5 -49.5t49.5 -20.5t49.5 20.5t20.5 49.5v433h166v-433q0 -97 -69 -166.5t-167 -69.5t-167 69.5t-69 166.5v1049q0 98 69 167t167 69t167 -69t69 -167v-392z" />
    <glyph glyph-name="d" unicode="d" horiz-adv-x="618" 
d="M318 1438q95 0 162.5 -67.5t67.5 -162.5v-1061q0 -95 -67.5 -162.5t-162.5 -67.5h-242v1521h242zM382 147v1061q0 26 -19 45t-45 19h-76v-1189h76q26 0 45 19t19 45z" />
    <glyph glyph-name="e" unicode="e" horiz-adv-x="563" 
d="M548 1272h-306v-492h210v-167h-210v-530h306v-166h-472v1521h472v-166z" />
    <glyph glyph-name="e" unicode="&#xeb;" horiz-adv-x="563" 
d="M548 1272h-306v-492h210v-167h-210v-530h306v-166h-472v1521h472v-166z" />
    <glyph glyph-name="e" unicode="&#xea;" horiz-adv-x="563" 
d="M548 1272h-306v-492h210v-167h-210v-530h306v-166h-472v1521h472v-166z" />
    <glyph glyph-name="e" unicode="&#xe9;" horiz-adv-x="563" 
d="M548 1272h-306v-492h210v-167h-210v-530h306v-166h-472v1521h472v-166z" />
    <glyph glyph-name="e" unicode="&#xe8;" horiz-adv-x="563" 
d="M548 1272h-306v-492h210v-167h-210v-530h306v-166h-472v1521h472v-166z" />
    <glyph glyph-name="f" unicode="f" horiz-adv-x="548" 
d="M548 1272h-306v-492h210v-167h-210v-696h-166v1521h472v-166z" />
    <glyph glyph-name="g" unicode="g" horiz-adv-x="608" 
d="M542 1202v-298h-166v298q0 29 -20.5 49.5t-49.5 20.5t-49.5 -20.5t-20.5 -49.5v-1049q0 -29 20.5 -49.5t49.5 -20.5t49.5 20.5t20.5 49.5v408h-79v166h245v-574q0 -97 -69 -166.5t-167 -69.5t-167 69.5t-69 166.5v1049q0 98 69 167t167 69t167 -69t69 -167z" />
    <glyph glyph-name="h" unicode="h" horiz-adv-x="624" 
d="M382 1438h166v-1521h-166v644h-140v-644h-166v1521h166v-711h140v711z" />
    <glyph glyph-name="i" unicode="i" horiz-adv-x="317" 
d="M242 -83h-166v1521h166v-1521z" />
    <glyph glyph-name="i" unicode="&#xef;" horiz-adv-x="317" 
d="M242 -83h-166v1521h166v-1521z" />
    <glyph glyph-name="i" unicode="&#xee;" horiz-adv-x="317" 
d="M242 -83h-166v1521h166v-1521z" />
    <glyph glyph-name="i" unicode="&#xed;" horiz-adv-x="317" 
d="M242 -83h-166v1521h166v-1521z" />
    <glyph glyph-name="i" unicode="&#xec;" horiz-adv-x="317" 
d="M242 -83h-166v1521h166v-1521z" />
    <glyph glyph-name="j" unicode="j" horiz-adv-x="569" 
d="M176 1438h319v-1285q0 -97 -69.5 -166.5t-166.5 -69.5t-166.5 69.5t-69.5 166.5v433h166v-433q0 -29 20.5 -49.5t49.5 -20.5t49.5 20.5t20.5 49.5v1119h-153v166z" />
    <glyph glyph-name="k" unicode="k" horiz-adv-x="622" 
d="M548 1438v-580q0 -83 -53 -147q53 -64 53 -147v-647h-166v647q0 26 -19 45t-45 19h-76v-711h-166v1521h166v-644h76q26 0 45 19t19 45v580h166z" />
    <glyph glyph-name="l" unicode="l" horiz-adv-x="530" 
d="M242 83h306v-166h-472v1521h166v-1355z" />
    <glyph glyph-name="m" unicode="m" horiz-adv-x="923" 
d="M614 1438q98 0 167.5 -69.5t69.5 -166.5v-1285h-166v1285q0 29 -21 49.5t-50 20.5t-49.5 -20.5t-20.5 -49.5v-1285h-166v1285q0 29 -20.5 49.5t-49.5 20.5t-49.5 -20.5t-20.5 -49.5v-1285h-166v1285q0 98 69 167t167 69q87 0 153 -56q66 56 153 56z" />
    <glyph glyph-name="n" unicode="n" horiz-adv-x="620" 
d="M312 1438q98 0 167 -69t69 -167v-1285h-166v1285q0 29 -20.5 49.5t-49.5 20.5t-49.5 -20.5t-20.5 -49.5v-1285h-166v1521h166v-10q31 10 70 10z" />
    <glyph glyph-name="n" unicode="&#xf1;" horiz-adv-x="620" 
d="M312 1438q98 0 167 -69t69 -167v-1285h-166v1285q0 29 -20.5 49.5t-49.5 20.5t-49.5 -20.5t-20.5 -49.5v-1285h-166v1521h166v-10q31 10 70 10z" />
    <glyph glyph-name="o" unicode="o" horiz-adv-x="612" 
d="M306 1438q98 0 167 -69t69 -167v-1049q0 -97 -69 -166.5t-167 -69.5t-167 69.5t-69 166.5v1049q0 98 69 167t167 69zM376 153v1049q0 29 -20.5 49.5t-49.5 20.5t-49.5 -20.5t-20.5 -49.5v-1049q0 -29 20.5 -49.5t49.5 -20.5t49.5 20.5t20.5 49.5z" />
    <glyph glyph-name="o" unicode="&#xf8;" horiz-adv-x="612" 
d="M306 1438q98 0 167 -69t69 -167v-1049q0 -97 -69 -166.5t-167 -69.5t-167 69.5t-69 166.5v1049q0 98 69 167t167 69zM376 153v1049q0 29 -20.5 49.5t-49.5 20.5t-49.5 -20.5t-20.5 -49.5v-1049q0 -29 20.5 -49.5t49.5 -20.5t49.5 20.5t20.5 49.5z" />
    <glyph glyph-name="o" unicode="&#xf6;" horiz-adv-x="612" 
d="M306 1438q98 0 167 -69t69 -167v-1049q0 -97 -69 -166.5t-167 -69.5t-167 69.5t-69 166.5v1049q0 98 69 167t167 69zM376 153v1049q0 29 -20.5 49.5t-49.5 20.5t-49.5 -20.5t-20.5 -49.5v-1049q0 -29 20.5 -49.5t49.5 -20.5t49.5 20.5t20.5 49.5z" />
    <glyph glyph-name="o" unicode="&#xf5;" horiz-adv-x="612" 
d="M306 1438q98 0 167 -69t69 -167v-1049q0 -97 -69 -166.5t-167 -69.5t-167 69.5t-69 166.5v1049q0 98 69 167t167 69zM376 153v1049q0 29 -20.5 49.5t-49.5 20.5t-49.5 -20.5t-20.5 -49.5v-1049q0 -29 20.5 -49.5t49.5 -20.5t49.5 20.5t20.5 49.5z" />
    <glyph glyph-name="o" unicode="&#xf4;" horiz-adv-x="612" 
d="M306 1438q98 0 167 -69t69 -167v-1049q0 -97 -69 -166.5t-167 -69.5t-167 69.5t-69 166.5v1049q0 98 69 167t167 69zM376 153v1049q0 29 -20.5 49.5t-49.5 20.5t-49.5 -20.5t-20.5 -49.5v-1049q0 -29 20.5 -49.5t49.5 -20.5t49.5 20.5t20.5 49.5z" />
    <glyph glyph-name="o" unicode="&#xf3;" horiz-adv-x="612" 
d="M306 1438q98 0 167 -69t69 -167v-1049q0 -97 -69 -166.5t-167 -69.5t-167 69.5t-69 166.5v1049q0 98 69 167t167 69zM376 153v1049q0 29 -20.5 49.5t-49.5 20.5t-49.5 -20.5t-20.5 -49.5v-1049q0 -29 20.5 -49.5t49.5 -20.5t49.5 20.5t20.5 49.5z" />
    <glyph glyph-name="o" unicode="&#xf2;" horiz-adv-x="612" 
d="M306 1438q98 0 167 -69t69 -167v-1049q0 -97 -69 -166.5t-167 -69.5t-167 69.5t-69 166.5v1049q0 98 69 167t167 69zM376 153v1049q0 29 -20.5 49.5t-49.5 20.5t-49.5 -20.5t-20.5 -49.5v-1049q0 -29 20.5 -49.5t49.5 -20.5t49.5 20.5t20.5 49.5z" />
    <glyph glyph-name="p" unicode="p" horiz-adv-x="593" 
d="M318 1438q95 0 162.5 -67.5t67.5 -162.5v-636q0 -95 -67.5 -162.5t-162.5 -67.5h-76v-425h-166v1521h242zM382 572v636q0 26 -19 45t-45 19h-76v-764h76q26 0 45 19t19 45z" />
    <glyph glyph-name="q" unicode="q" horiz-adv-x="614" 
d="M542 1202v-1049q0 -39 -10 -70h10v-166h-237q-98 1 -166.5 70t-68.5 166v1049q0 98 69 167t167 69t167 -69t69 -167zM376 153v1049q0 29 -20.5 49.5t-49.5 20.5t-49.5 -20.5t-20.5 -49.5v-1049q0 -29 20.5 -49.5t49.5 -20.5t49.5 20.5t20.5 49.5z" />
    <glyph glyph-name="r" unicode="r" horiz-adv-x="618" 
d="M548 1208v-417q0 -83 -53 -147q53 -64 53 -147v-580h-166v580q0 26 -19 45t-45 19h-76v-644h-166v1521h242q95 0 162.5 -67.5t67.5 -162.5zM382 791v417q0 26 -19 45t-45 19h-76v-545h76q26 0 45 19t19 45z" />
    <glyph glyph-name="s" unicode="s" horiz-adv-x="589" 
d="M532 926h-166v276q0 29 -20.5 49.5t-49.5 20.5t-49.5 -20.5t-20.5 -49.5v-227q0 -83 57 -140l142 -142q30 -30 52 -65q32 -51 45 -109q10 -45 10 -83v-283q0 -97 -69 -166.5t-167 -69.5t-167.5 69.5t-69.5 166.5v348h167v-348q0 -29 20.5 -49.5t49.5 -20.5t49.5 20.5
t20.5 49.5v283q0 82 -58 140l-59 59l-83 83q-74 74 -97 174q-10 45 -10 83v227q0 97 69.5 166.5t167.5 69.5t167 -69t69 -167v-276z" />
    <glyph glyph-name="t" unicode="t" horiz-adv-x="481" 
d="M4 1438h473v-166h-154v-1355h-166v1355h-153v166z" />
    <glyph glyph-name="u" unicode="u" horiz-adv-x="620" 
d="M380 1438h166v-1285q0 -97 -69 -166.5t-167 -69.5t-167 69.5t-69 166.5v1285h166v-1285q0 -29 20.5 -49.5t49.5 -20.5t49.5 20.5t20.5 49.5v1285z" />
    <glyph glyph-name="u" unicode="&#xfc;" horiz-adv-x="620" 
d="M380 1438h166v-1285q0 -97 -69 -166.5t-167 -69.5t-167 69.5t-69 166.5v1285h166v-1285q0 -29 20.5 -49.5t49.5 -20.5t49.5 20.5t20.5 49.5v1285z" />
    <glyph glyph-name="u" unicode="&#xfb;" horiz-adv-x="620" 
d="M380 1438h166v-1285q0 -97 -69 -166.5t-167 -69.5t-167 69.5t-69 166.5v1285h166v-1285q0 -29 20.5 -49.5t49.5 -20.5t49.5 20.5t20.5 49.5v1285z" />
    <glyph glyph-name="u" unicode="&#xfa;" horiz-adv-x="620" 
d="M380 1438h166v-1285q0 -97 -69 -166.5t-167 -69.5t-167 69.5t-69 166.5v1285h166v-1285q0 -29 20.5 -49.5t49.5 -20.5t49.5 20.5t20.5 49.5v1285z" />
    <glyph glyph-name="u" unicode="&#xf9;" horiz-adv-x="620" 
d="M380 1438h166v-1285q0 -97 -69 -166.5t-167 -69.5t-167 69.5t-69 166.5v1285h166v-1285q0 -29 20.5 -49.5t49.5 -20.5t49.5 20.5t20.5 49.5v1285z" />
    <glyph glyph-name="v" unicode="v" 
d="M378 1438h166v-1205q0 -115 -80 -195l-156 -155l-156 155q-80 80 -80 195v1205h166v-1205q0 -45 32 -77l38 -38l38 38q32 32 32 77v1205z" />
    <glyph glyph-name="w" unicode="w" horiz-adv-x="927" 
d="M687 1443h166v-1286q0 -97 -69.5 -166.5t-167.5 -69.5q-86 0 -153 57q-67 -57 -153 -57q-98 0 -167 69.5t-69 166.5v1286h166v-1286q0 -29 20.5 -49.5t49.5 -20.5t49.5 20.5t20.5 49.5v1286h166v-1286q0 -29 20.5 -49.5t49.5 -20.5t50 20.5t21 49.5v1286z" />
    <glyph glyph-name="x" unicode="x" horiz-adv-x="620" 
d="M546 1438v-428q0 -87 -56 -153q56 -66 56 -153v-787h-166v787q0 29 -20.5 49.5t-49.5 20.5t-49.5 -20.5t-20.5 -49.5v-787h-166v787q0 87 56 153q-56 66 -56 153v428h166v-428q0 -29 20.5 -49.5t49.5 -20.5t49.5 20.5t20.5 49.5v428h166z" />
    <glyph glyph-name="y" unicode="y" horiz-adv-x="614" 
d="M374 1438h166v-1286q0 -98 -69 -167t-167 -69t-167 69t-69 167v231h166v-231q0 -29 20.5 -49.5t49.5 -20.5t49.5 20.5t20.5 49.5v343q-35 -11 -70 -11q-97 0 -166.5 69.5t-69.5 167.5v717h166v-717q0 -29 20.5 -49.5t49.5 -20.5t49.5 20.5t20.5 49.5v717z" />
    <glyph glyph-name="y" unicode="&#xff;" horiz-adv-x="614" 
d="M374 1438h166v-1286q0 -98 -69 -167t-167 -69t-167 69t-69 167v231h166v-231q0 -29 20.5 -49.5t49.5 -20.5t49.5 20.5t20.5 49.5v343q-35 -11 -70 -11q-97 0 -166.5 69.5t-69.5 167.5v717h166v-717q0 -29 20.5 -49.5t49.5 -20.5t49.5 20.5t20.5 49.5v717z" />
    <glyph glyph-name="y" unicode="&#xfd;" horiz-adv-x="614" 
d="M374 1438h166v-1286q0 -98 -69 -167t-167 -69t-167 69t-69 167v231h166v-231q0 -29 20.5 -49.5t49.5 -20.5t49.5 20.5t20.5 49.5v343q-35 -11 -70 -11q-97 0 -166.5 69.5t-69.5 167.5v717h166v-717q0 -29 20.5 -49.5t49.5 -20.5t49.5 20.5t20.5 49.5v717z" />
    <glyph glyph-name="z" unicode="z" horiz-adv-x="526" 
d="M514 1438l-306 -1355h285v-166h-493l306 1355h-285v166h493z" />
    <glyph glyph-name="braceleft" unicode="{" horiz-adv-x="598" 
d="M340 1287v-520q0 -69 -41 -123q41 -54 41 -123v-520q0 -40 28.5 -68.5t68.5 -28.5h83v-166h-83q-109 0 -186 77t-77 186v520q0 17 -12 28.5t-28 11.5h-83v166h83q16 0 28 11.5t12 28.5v520q0 109 77 186t186 77h83v-166h-83q-40 0 -68.5 -28.5t-28.5 -68.5z" />
    <glyph glyph-name="braceright" unicode="}" horiz-adv-x="598" 
d="M462 727h83v-166h-83q-16 0 -28 -11.5t-12 -28.5v-520q0 -109 -77 -186t-186 -77h-83v166h83q40 0 68.5 28.5t28.5 68.5v520q0 69 41 123q-41 54 -41 123v520q0 40 -28.5 68.5t-68.5 28.5h-83v166h83q109 0 186 -77t77 -186v-520q0 -17 12 -28.5t28 -11.5z" />
    <glyph glyph-name="asciitilde" unicode="~" horiz-adv-x="827" 
d="M612 828h166v-83q0 -127 -77 -178q-31 -21 -68 -27t-84.5 5t-78.5 22t-88 34q-131 53 -162 49q-5 -12 -5 -40v-83h-166v83q0 127 76 178q31 21 68.5 27t84 -4.5t78.5 -21.5t88 -34q133 -54 163 -50q5 13 5 40v83z" />
    <glyph glyph-name="nonbreakingspace" unicode="&#xa0;" horiz-adv-x="335" 
 />
    <glyph glyph-name="cent" unicode="&#xa2;" horiz-adv-x="604" 
d="M540 767h-166v156q0 29 -20.5 49.5t-49.5 20.5t-49.5 -20.5t-20.5 -49.5v-558q0 -29 20.5 -49.5t49.5 -20.5t49.5 20.5t20.5 49.5v156h166v-156q0 -75 -42.5 -135t-110.5 -86v-101h-166v101q-68 26 -110.5 86t-42.5 135v558q0 75 42.5 135t110.5 86v101h166v-101
q68 -26 110.5 -86t42.5 -135v-156z" />
    <glyph glyph-name="sterling" unicode="&#xa3;" horiz-adv-x="692" 
d="M636 1036h-166v166q0 29 -21 49.5t-50 20.5t-49.5 -20.5t-20.5 -49.5v-475h171v-166h-171v-394q0 -45 -13 -84h320v-166h-526v166q18 0 35.5 22t17.5 62v394h-108v166h108v475q0 98 69.5 167t166.5 69q98 0 167.5 -69.5t69.5 -166.5v-166z" />
    <glyph glyph-name="yen" unicode="&#xa5;" horiz-adv-x="612" 
d="M542 959q0 -114 -80 -194l-73 -73v-96h139v-166h-139v-107h139v-166h-139v-243h-166v243h-139v166h139v107h-139v166h139v96l-73 73q-80 80 -80 194v479h166v-479q0 -45 32 -77l38 -38l38 38q32 32 32 77v479h166v-479z" />
    <glyph glyph-name="copyright" unicode="&#xa9;" horiz-adv-x="1521" 
d="M761 1091q97 0 166.5 -69.5t69.5 -167.5v-113h-166v113q0 29 -20.5 49.5t-49.5 20.5t-50 -20.5t-21 -49.5v-420q0 -29 21 -49.5t50 -20.5t49.5 20.5t20.5 49.5v83h166v-83q0 -98 -69.5 -167t-166.5 -69q-98 0 -167.5 69.5t-69.5 166.5v420q0 98 70 167.5t167 69.5z
M761 1349q191 0 353.5 -94.5t257 -257t94.5 -353.5t-94.5 -353.5t-257 -257t-353.5 -94.5q-143 0 -274 56t-225.5 150.5t-150.5 225t-56 273.5t56 273.5t150.5 225t225.5 150.5t274 56zM761 105q146 0 270 72.5t196.5 196.5t72.5 270t-72.5 270t-196.5 196.5t-270 72.5
t-270.5 -72.5t-197 -196.5t-72.5 -270t72.5 -270t197 -196.5t270.5 -72.5z" />
    <glyph glyph-name="softhyphen" unicode="&#xad;" horiz-adv-x="0" 
 />
    <glyph glyph-name="registered" unicode="&#xae;" horiz-adv-x="1521" 
d="M774 1108q95 0 162.5 -67.5t67.5 -162.5v-138q0 -82 -54 -147q54 -65 54 -147v-230h-166v230q0 26 -19 45t-45 19h-77v-294h-166v892h243zM838 740v138q0 26 -19 45t-45 19h-77v-266h77q26 0 45 19t19 45zM761 1349q191 0 353.5 -94.5t257 -257t94.5 -353.5t-94.5 -353.5
t-257 -257t-353.5 -94.5q-143 0 -274 56t-225.5 150.5t-150.5 225t-56 273.5t56 273.5t150.5 225t225.5 150.5t274 56zM761 105q146 0 270 72.5t196.5 196.5t72.5 270t-72.5 270t-196.5 196.5t-270 72.5t-270.5 -72.5t-197 -196.5t-72.5 -270t72.5 -270t197 -196.5
t270.5 -72.5z" />
    <glyph glyph-name="multiply" unicode="&#xd7;" horiz-adv-x="696" 
d="M643 856l-178 -178l178 -179l-117 -117l-179 178l-178 -178l-118 117l179 179l-179 178l118 118l178 -179l179 179z" />
    <glyph glyph-name="divide" unicode="&#xf7;" horiz-adv-x="768" 
d="M725 594h-682v166h682v-166zM467 358h-166v166h166v-166zM467 829h-166v166h166v-166z" />
    <glyph glyph-name="quoteleft" unicode="&#x2018;" horiz-adv-x="360" 
d="M270 1458l46 -160l-80 -23q-27 -9 -27 -39h-166q0 72 40 125.5t108 73.5z" />
    <glyph glyph-name="quoteright" unicode="&#x2019;" horiz-adv-x="360" 
d="M150 1355h166q0 -72 -40 -125.5t-108 -73.5l-79 -23l-46 160l80 23q27 9 27 39z" />
    <glyph glyph-name="quotedblleft" unicode="&#x201c;" horiz-adv-x="645" 
d="M191 1435l79 23l46 -160l-80 -23q-27 -9 -27 -39h-166q0 72 40 125.5t108 73.5zM557 1458l45 -160l-80 -23q-27 -9 -27 -39h-166q0 72 40 125.5t108 73.5z" />
    <glyph glyph-name="quotedblright" unicode="&#x201d;" horiz-adv-x="645" 
d="M436 1355h166q0 -72 -39.5 -125.5t-107.5 -73.5l-80 -23l-46 160l80 23q27 9 27 39zM123 1316q27 9 27 39h166q0 -72 -40 -125.5t-108 -73.5l-79 -23l-46 160z" />
    <glyph glyph-name="Euro" unicode="&#x20ac;" horiz-adv-x="686" 
d="M620 1036h-166v166q0 29 -20.5 49.5t-49.5 20.5t-49.5 -20.5t-20.5 -49.5v-299h192v-166h-192v-107h192v-166h-192v-311q0 -29 20.5 -49.5t49.5 -20.5t49.5 20.5t20.5 49.5v165h166v-165q0 -97 -69 -166.5t-167 -69.5t-167 69.5t-69 166.5v311h-87v166h87v107h-87v166h87
v299q0 98 69 167t167 69t167 -69t69 -167v-166z" />
    <glyph glyph-name="trademark" unicode="&#x2122;" horiz-adv-x="1343" 
d="M1044 1438q98 0 167.5 -69.5t69.5 -166.5v-439h-166v439q0 29 -21 49.5t-50 20.5t-49.5 -20.5t-20.5 -49.5v-439h-166v439q0 29 -20.5 49.5t-49.5 20.5t-49.5 -20.5t-20.5 -49.5v-439h-166v439q0 39 10 70h-148v-509h-166v509h-153v166h684h9q87 0 153 -56q66 56 153 56z
" />
    </font>
</defs>
</svg>
