<?xml version="1.0" standalone="no"?>
<!DOCTYPE svg PUBLIC "-//W3C//DTD SVG 1.1//EN" "http://www.w3.org/Graphics/SVG/1.1/DTD/svg11.dtd" >
<svg xmlns="http://www.w3.org/2000/svg" xmlns:xlink="http://www.w3.org/1999/xlink" version="1.1">
<metadata>
Created by FontForge 20201107 at (null) By 
Copyright (c) 1986-1995 SWFTE International, Ltd. All rights reserved
</metadata>
<defs>
<font id="AverageBoldSWFTE" horiz-adv-x="859" >
  <font-face 
    font-family="Average"
    font-weight="700"
    font-stretch="normal"
    units-per-em="1000"
    panose-1="0 0 7 0 0 0 0 0 0 0"
    ascent="800"
    descent="-200"
    x-height="611"
    cap-height="890"
    bbox="-74 -289 1398 1010"
    underline-thickness="70"
    underline-position="-185"
    unicode-range="U+0020-2022"
  />
<missing-glyph horiz-adv-x="500" 
d="M63 0v800h375v-800h-375zM125 63h250v675h-250v-675z" />
    <glyph glyph-name=".notdef" horiz-adv-x="500" 
d="M63 0v800h375v-800h-375zM125 63h250v675h-250v-675z" />
    <glyph glyph-name=".null" horiz-adv-x="0" 
 />
    <glyph glyph-name="nonmarkingreturn" horiz-adv-x="439" 
 />
    <glyph glyph-name="space" unicode=" " horiz-adv-x="439" 
 />
    <glyph glyph-name="exclam" unicode="!" horiz-adv-x="347" 
d="M299 328h-161l-20 547h242zM133 1v200h187v-200h-187z" />
    <glyph glyph-name="quotedbl" unicode="&#x22;" horiz-adv-x="575" 
d="M402 444v432h178v-432h-178zM147 444v432h178v-432h-178z" />
    <glyph glyph-name="numbersign" unicode="#" horiz-adv-x="826" 
d="M731 454q-5 -17 -19 -88q32 -2 99 2v-139q-36 13 -62 13q-54 0 -78 -61q-12 -30 -24 -90q-13 -63 -23 -90h-158l62 232h-111q-35 -106 -66 -232h-131l63 231h-126v133h148q3 7 22 89q-45 -1 -132 -5v159h152l48 243h125l-44 -242h112q14 61 47 242h159l-43 -242
q32 -2 98 2v-157h-118zM455 453q-6 -30 -16 -87h133q6 31 18 87h-135z" />
    <glyph glyph-name="dollar" unicode="$" horiz-adv-x="940" 
d="M565 -28q1 -3 1 -17t4 -157h-149v171q-136 14 -227 56q-144 68 -144 198v98h212q-14 -23 -14 -49q0 -65 52 -98q41 -27 107 -27h13v193l-160 40q-90 27 -134 70q-57 56 -57 155q0 135 99 205q91 66 254 69l-5 131h148v-128q113 -11 214 -63q143 -75 143 -195v-33h-214
q-19 108 -138 108h-3v-166q32 -15 166 -54q106 -30 152 -69q66 -56 66 -159q0 -138 -132 -216q-110 -64 -254 -63zM420 706q-59 -8 -85 -19q-48 -21 -48 -63q0 -39 50 -56q8 -2 83 -16v154zM575 326h-8v-178h8q31 0 77 28q53 31 53 68q0 30 -50 57q-45 25 -80 25z" />
    <glyph glyph-name="percent" unicode="%" horiz-adv-x="1221" 
d="M975 -26q-123 0 -194 62t-71 183q0 120 72 184q70 60 193 60t192 -60q73 -64 73 -184q0 -126 -78 -189q-69 -56 -187 -56zM425 -100h-147l520 975h147zM298 387q-118 0 -190 66t-72 176q0 115 71.5 181t188.5 66q113 0 188 -67q77 -70 77 -182q0 -120 -83 -184
q-71 -56 -180 -56zM972 331q-59 0 -85 -30q-22 -26 -22 -82q0 -58 20 -83q25 -30 87 -30q123 0 123 113q0 52 -31.5 82t-91.5 30zM298 744q-50 0 -81 -31t-31 -84q0 -48 27 -80q31 -34 85 -34q47 0 85 30q43 33 43 84q0 46 -36.5 80.5t-91.5 34.5z" />
    <glyph glyph-name="ampersand" unicode="&#x26;" horiz-adv-x="1138" 
d="M894 0q-9 -1 -62 39t-57 40q0 -1 -1 -2q-48 -33 -81 -48q-111 -53 -250 -53q-149 0 -250 56q-133 72 -133 223q0 181 221 257q-39 44 -39 102q0 262 263 262q106 0 184 -45q99 -56 99 -164q0 -130 -140 -193l164 -147q103 70 93 149q54 -25 160 -72q2 -10 2 -20
q0 -77 -119 -170l239 -214h-293zM505 744q-30 0 -64 -24.5t-34 -54.5q0 -20 40 -66t61 -46q22 0 61.5 47.5t39.5 69.5q0 27 -40 52q-36 22 -64 22zM439 381q-79 -35 -104 -50q-67 -41 -67 -81q0 -57 62 -91q51 -28 113 -28q45 0 104.5 19.5t97.5 46.5z" />
    <glyph glyph-name="quotesingle" unicode="'" horiz-adv-x="310" 
d="M137 444v432h178v-432h-178z" />
    <glyph glyph-name="parenleft" unicode="(" horiz-adv-x="449" 
d="M272 323q0 -127 64 -270q54 -122 169 -283h-181q-124 117 -187 270q-58 138 -58 283q0 75 21 174q15 73 100 219q93 159 140 159h165q-233 -320 -233 -552z" />
    <glyph glyph-name="parenright" unicode=")" horiz-adv-x="468" 
d="M220 -230h-175q212 317 212 553q0 231 -212 552h159q8 0 40.5 -28.5t50.5 -51.5q170 -215 170 -472q0 -143 -58 -280q-63 -151 -187 -273z" />
    <glyph glyph-name="asterisk" unicode="*" horiz-adv-x="523" 
d="M402 591l106 -114q-10 -10 -113 -92l-109 126l-108 -126q-38 28 -113 86q39 48 106 120q-50 19 -150 52l45 136l144 -54q2 30 -3 151h150q6 -46 6 -148l143 51q31 -75 48 -136z" />
    <glyph glyph-name="plus" unicode="+" horiz-adv-x="653" 
d="M462 227v-226h-180v224h-236v173h235v222h179v-219h231v-174h-229z" />
    <glyph glyph-name="comma" unicode="," horiz-adv-x="354" 
d="M94 -227v109q48 4 81 39q29 32 29 67v3q-40 3 -86 -3v199h241v-177q0 -81 -72 -151q-78 -77 -193 -86z" />
    <glyph glyph-name="hyphen" unicode="-" horiz-adv-x="522" 
d="M60 270v167h467v-167h-467z" />
    <glyph glyph-name="hyphen" unicode="&#x2010;" horiz-adv-x="522" 
d="M60 270v167h467v-167h-467z" />
    <glyph glyph-name="period" unicode="." horiz-adv-x="349" 
d="M94 1v205h260v-205h-260z" />
    <glyph glyph-name="slash" unicode="/" horiz-adv-x="489" 
d="M171 -23h-189l372 922h189z" />
    <glyph glyph-name="zero" unicode="0" horiz-adv-x="946" 
d="M501 -24q-215 0 -340 127q-121 122 -121 323q0 206 125.5 328t335.5 122q218 0 339 -120.5t121 -329.5q0 -204 -128.5 -327t-331.5 -123zM498 702q-137 0 -192 -76q-43 -60 -43 -193q0 -283 238 -283q131 0 196 81q56 71 56 195q0 276 -255 276z" />
    <glyph glyph-name="one" unicode="1" horiz-adv-x="548" 
d="M291 -19v587q-43 2 -100 -2v118q15 -3 32 -3q97 0 120 89h194v-789h-246z" />
    <glyph glyph-name="two" unicode="2" horiz-adv-x="930" 
d="M652 311q-75 -20 -210 -62q-82 -29 -108 -65h609v-217h-854v74q0 169 83 262q63 72 202 119q125 39 251 78q89 32 89 86q0 75 -74 114q-56 31 -130 31q-230 0 -234 -192h-211v51q0 165 177 252q129 63 276 63q152 0 271 -65q157 -87 157 -257q0 -110 -92 -180
q-67 -51 -202 -92z" />
    <glyph glyph-name="three" unicode="3" horiz-adv-x="910" 
d="M484 39q-431 0 -448 318h225q9 -81 70 -124q56 -39 138 -39q57 0 127 26q99 38 99 104q0 43 -53 82q-48 35 -87 35h-196v146h230q22 0 40 15t18 36q0 93 -158 93q-139 0 -167 -112h-257v32q0 146 192 212q121 42 253 42q379 0 379 -248q0 -102 -111 -139q75 -34 108 -78
q36 -47 36 -120q0 -281 -438 -281z" />
    <glyph glyph-name="four" unicode="4" horiz-adv-x="945" 
d="M809 305v-290h-181v288h-558v106l495 457h241v-447h154v-114h-151zM627 714l-326 -295h326v295z" />
    <glyph glyph-name="five" unicode="5" horiz-adv-x="919" 
d="M498 -39q-154 0 -257 44q-159 67 -156 228h183q23 -71 94 -104q55 -26 127 -26q85 0 171 47q103 57 103 142q0 75 -89 123q-70 38 -135 38q-54 0 -109 -22q-33 -14 -97 -51q-26 -15 -38 -15h-197l36 486h759v-172h-590q-8 -49 -15 -133q152 39 251 39q156 0 265 -56
q147 -75 147 -235q0 -184 -167 -271q-119 -62 -286 -62z" />
    <glyph glyph-name="six" unicode="6" horiz-adv-x="938" 
d="M527 -24q-477 0 -477 495q0 211 156 318q128 87 331 87q142 0 240 -46q141 -67 161 -221h-170q-51 112 -222 112q-118 0 -185 -59q-73 -64 -98 -208l1 -10q71 77 147 105q59 23 147 23q158 0 260 -53q143 -73 143 -236q0 -174 -162 -253q-112 -54 -272 -54zM546 397
q-172 0 -172 -123q0 -67 66 -99q51 -25 123 -25q70 0 116 25q60 31 60 96q0 69 -67 102q-51 24 -126 24z" />
    <glyph glyph-name="seven" unicode="7" 
d="M472 1h-230q50 428 358 617h-515v176h822v-167q-188 -97 -309 -287q-103 -164 -126 -339z" />
    <glyph glyph-name="eight" unicode="8" horiz-adv-x="932" 
d="M498 -24q-429 0 -429 282q0 156 118 204q-84 53 -92 124q-2 13 -2 45q0 148 153 226q113 58 247 58q140 0 259 -71q146 -86 146 -235q0 -49 -13 -77q-18 -42 -70 -68q72 -36 103 -88q28 -48 28 -121q0 -170 -177 -238q-107 -41 -271 -41zM493 759q-57 0 -113 -23
q-79 -31 -79 -89q0 -61 86 -94q59 -23 111 -23q55 0 110 18q87 27 87 85q0 66 -86 101q-60 25 -116 25zM496 356q-67 0 -136 -26q-102 -37 -102 -110q0 -66 99 -99q68 -22 139 -22t136 19q107 32 107 105q0 68 -102 106q-74 27 -141 27z" />
    <glyph glyph-name="nine" unicode="9" horiz-adv-x="936" 
d="M469 -24q-135 0 -237 46q-152 69 -168 226h208q23 -56 78 -88q50 -28 107 -28q96 0 173 65q84 70 94 180q-56 -45 -141 -72q-74 -24 -135 -24q-149 0 -266 76q-142 93 -142 252q0 169 143 243q102 53 267 53q235 0 366 -122q135 -124 135 -354q0 -229 -130 -344
q-123 -109 -352 -109zM455 759q-80 0 -135 -30q-72 -39 -72 -120q0 -80 69 -127q59 -41 140 -41q78 0 147 36q91 46 91 130q0 81 -90 122q-66 30 -150 30z" />
    <glyph glyph-name="colon" unicode=":" horiz-adv-x="352" 
d="M94 437v222h260v-222h-260zM94 1v222h260v-222h-260z" />
    <glyph glyph-name="semicolon" unicode=";" horiz-adv-x="352" 
d="M94 435v224h260v-224h-260zM94 -226v105q96 24 109 112q-52 5 -109 -3v231h260v-207q0 -84 -76 -158q-80 -76 -184 -80z" />
    <glyph glyph-name="less" unicode="&#x3c;" horiz-adv-x="696" 
d="M294 310l397 -152v-173l-650 256v139l650 256v-173z" />
    <glyph glyph-name="equal" unicode="=" horiz-adv-x="687" 
d="M41 352v167h650v-167h-650zM41 102v167h650v-167h-650z" />
    <glyph glyph-name="greater" unicode="&#x3e;" horiz-adv-x="639" 
d="M41 -15v173l397 153l-397 152v173l650 -256v-139z" />
    <glyph glyph-name="question" unicode="?" horiz-adv-x="833" 
d="M763 430q-100 -62 -106 -67q-54 -39 -88 -91h-235v32q0 81 68 137q20 16 136 80q85 48 85 100q0 55 -60 79q-40 16 -91 16q-69 0 -113 -34q-51 -40 -60 -119h-254q8 179 151 264q107 64 264 64q152 0 261 -47q163 -69 163 -225q0 -69 -36 -117q-26 -35 -85 -72zM325 1
v224h260v-224h-260z" />
    <glyph glyph-name="at" unicode="@" horiz-adv-x="947" 
d="M783 187v0h137q-163 -211 -407 -211q-203 0 -347 126q-150 132 -150 331q0 200 150 336q144 131 342 131q174 0 307 -97q151 -110 151 -290q0 -127 -91 -236q-98 -118 -235 -118q-33 0 -48 8q-19 10 -40 45q-62 -53 -143 -53q-98 0 -150 82q-40 62 -40 136q0 115 71 208
q80 104 201 104q93 0 148 -69l1 3q2 12 11 47h129q-34 -157 -39 -181v0l-40 -181q1 -15 4 -17h7q67 0 99 88q19 55 19 108q0 128 -94 206q-89 75 -226 75q-150 0 -247 -103q-92 -97 -92 -236q0 -145 106 -236q98 -85 241 -85q131 0 253 74l4 3q4 2 8 2zM503 534
q-52 0 -90.5 -46.5t-38.5 -93.5q0 -33 18 -59q22 -30 61 -30q49 0 90 44t41 98q0 34 -17 58q-22 29 -64 29z" />
    <glyph glyph-name="A" unicode="A" horiz-adv-x="1090" 
d="M840 1l-130 280h-328l-134 -280h-243l417 870h273l417 -870h-272zM556 684l-107 -200h218z" />
    <glyph glyph-name="B" unicode="B" horiz-adv-x="817" 
d="M584 0h-509v895h490q92 0 156 -82q57 -73 57 -155q0 -49 -26 -101q-29 -59 -81 -91q160 -62 160 -208q0 -85 -72 -168q-77 -90 -175 -90zM503 730h-239v-181h234q31 0 54 28.5t23 62.5q0 27 -18 56q-22 34 -54 34zM517 360h-253v-185h278q22 0 44.5 32t22.5 58
q0 29 -32.5 62t-59.5 33z" />
    <glyph glyph-name="C" unicode="C" horiz-adv-x="889" 
d="M635 30q-133 -16 -134 -16q-176 0 -315 117q-150 125 -150 305q0 182 134 323q139 146 331 146q140 0 284 -86q161 -97 161 -223v-38h-202q-70 164 -241 164q-116 0 -191 -93q-68 -84 -68 -193q0 -107 81 -177q76 -66 183 -66q174 0 236 150h202v-34q0 -82 -118 -179
q-110 -91 -193 -100z" />
    <glyph glyph-name="D" unicode="D" horiz-adv-x="925" 
d="M671 5h-611v818h563q103 0 183 -91q62 -72 100 -186q31 -92 31 -151q0 -50 -27 -134q-33 -105 -86 -171q-67 -85 -153 -85zM580 644h-312v-465h307q71 0 117 88q37 70 37 135q0 60 -33 137q-44 105 -116 105z" />
    <glyph glyph-name="E" unicode="E" horiz-adv-x="808" 
d="M70 10v899h779v-191h-571v-167h538v-185h-538v-166h586v-190h-794z" />
    <glyph glyph-name="F" unicode="F" horiz-adv-x="777" 
d="M278 718v-167h514v-194h-513v-347h-209v899h775v-191h-567z" />
    <glyph glyph-name="G" unicode="G" horiz-adv-x="985" 
d="M794 534q-13 88 -97 136q-70 42 -160 42q-127 0 -201 -88q-68 -81 -68 -198q0 -114 99 -186q86 -62 191 -62q73 0 119 19q58 25 105 89q-4 0 -206 -5v154h423v-440h-156q7 43 6 71q-107 -90 -288 -90q-186 0 -337 121q-164 132 -164 325q0 197 130 333q134 140 342 140
q116 0 222 -44q137 -57 197 -170q48 -90 48 -114v-33h-205z" />
    <glyph glyph-name="H" unicode="H" horiz-adv-x="1053" 
d="M778 -4v331h-470v-331h-248v851h245v-350h470v350h262v-851h-259z" />
    <glyph glyph-name="I" unicode="I" horiz-adv-x="266" 
d="M22 -4v894h231v-894h-231z" />
    <glyph glyph-name="J" unicode="J" horiz-adv-x="797" 
d="M400 -5q-126 0 -246 69q-152 87 -152 232v46h239q21 -159 163 -159q63 0 112 33q59 38 59 103v576h231v-591q0 -150 -156 -239q-122 -70 -250 -70z" />
    <glyph glyph-name="K" unicode="K" horiz-adv-x="875" 
d="M635 1l-297 385q-43 -46 -109 -111v-274h-197v884h200v-344l308 344h277l-319 -352l408 -532h-271z" />
    <glyph glyph-name="L" unicode="L" horiz-adv-x="750" 
d="M22 -4v875h216v-677h573v-198h-789z" />
    <glyph glyph-name="M" unicode="M" horiz-adv-x="1378" 
d="M1102 1v598l-316 -599h-201l-292 596v-595h-261v894h336l319 -623l361 623h317v-894h-263z" />
    <glyph glyph-name="N" unicode="N" horiz-adv-x="849" 
d="M572 1l-346 544v-544h-204v884h225l389 -628v628h199v-884h-263z" />
    <glyph glyph-name="O" unicode="O" horiz-adv-x="1084" 
d="M563 -29q-186 0 -344 126q-169 136 -169 322q0 201 164 341q154 131 349 131t353 -126q175 -139 175 -344q0 -138 -90 -248q-78 -95 -207 -151q-118 -51 -231 -51zM563 674q-105 0 -188 -75.5t-83 -177.5q0 -95 88 -168q84 -70 183 -70q92 0 179 64q98 73 98 172
q0 100 -84 177.5t-193 77.5z" />
    <glyph glyph-name="P" unicode="P" horiz-adv-x="764" 
d="M604 342h-378v-341h-209v884h582q110 0 179 -112q53 -87 53 -166q0 -78 -63 -165q-72 -100 -164 -100zM555 707h-330v-195h330q37 0 63 31q24 28 24 61t-20 64q-25 39 -67 39z" />
    <glyph glyph-name="Q" unicode="Q" horiz-adv-x="1098" 
d="M1013 -39l-142 97q-147 -92 -303 -92q-116 0 -234 57q-124 59 -200 157q-84 110 -84 239q0 202 164 341q154 131 349 131q200 0 359 -131q169 -139 169 -341q0 -112 -64 -207q19 -17 101 -72q-5 -10 -115 -179zM566 674q-102 0 -186 -73q-88 -76 -88 -180q0 -90 87 -164
t184 -74q43 0 95 17l-126 93q41 55 128 166l164 -109q16 54 16 71q0 100 -84 176.5t-190 76.5z" />
    <glyph glyph-name="R" unicode="R" horiz-adv-x="823" 
d="M638 -4v191q0 30 -26 84q-31 66 -71 66h-320v-341h-189v899h572q98 0 161 -100q51 -82 51 -162q0 -59 -20 -112q-29 -71 -86 -101q106 -67 106 -129v-254q0 -5 36 -41h-214zM546 711h-326v-190h316q34 0 59 34q23 30 23 61q0 22 -20 55q-24 40 -52 40z" />
    <glyph glyph-name="S" unicode="S" horiz-adv-x="994" 
d="M513 -24q-156 0 -280 37q-216 65 -216 222v55h288q3 -72 89 -102q52 -19 128 -19q64 0 113 11q94 20 94 73q0 55 -99 76q-4 0 -244 27q-164 18 -244 64q-111 65 -111 201q0 170 192 243q121 46 282 46q154 0 278 -54q180 -77 203 -246h-282q-24 78 -84 107
q-39 18 -105 18q-65 0 -120 -17q-89 -28 -89 -92q0 -44 102 -67q124 -18 247 -37q167 -28 250 -80q114 -71 114 -203q0 -161 -214 -226q-123 -37 -292 -37z" />
    <glyph glyph-name="T" unicode="T" 
d="M544 713v-717h-175v714h-333v199h862v-196h-354z" />
    <glyph glyph-name="U" unicode="U" horiz-adv-x="906" 
d="M477 10q-69 0 -161 30q-111 38 -180 100q-86 78 -86 180v575h217v-567q0 -61 89 -100q68 -30 121 -30t118 35q81 43 81 105v557h241v-576q0 -156 -181 -245q-132 -64 -259 -64z" />
    <glyph glyph-name="V" unicode="V" horiz-adv-x="961" 
d="M608 0h-240l-367 890h266l238 -591l307 586h238z" />
    <glyph glyph-name="W" unicode="W" horiz-adv-x="1289" 
d="M1106 0h-228l-196 590l-178 -590h-214l-282 938h242l159 -652l223 652h132l228 -658l174 658h232z" />
    <glyph glyph-name="X" unicode="X" 
d="M616 464l272 -463h-244l-184 309l-165 -309h-253l266 466l-267 452h254l165 -323l184 323h244z" />
    <glyph glyph-name="Y" unicode="Y" horiz-adv-x="776" 
d="M518 432v-426h-208v422l-298 481h225l179 -314l175 314h220z" />
    <glyph glyph-name="Z" unicode="Z" horiz-adv-x="785" 
d="M22 -4v212l506 474h-487v189h741v-207l-496 -475h525v-193h-789z" />
    <glyph glyph-name="bracketleft" unicode="[" horiz-adv-x="485" 
d="M89 -230v1105h428v-173h-196v-756h196v-176h-428z" />
    <glyph glyph-name="backslash" unicode="\" horiz-adv-x="489" 
d="M354 -23l-372 922h189l372 -922h-189z" />
    <glyph glyph-name="bracketright" unicode="]" horiz-adv-x="474" 
d="M32 -230v173h196v756h-196v176h428v-1105h-428z" />
    <glyph glyph-name="underscore" unicode="_" horiz-adv-x="574" 
d="M-12 -153v61h640v-61h-640z" />
    <glyph glyph-name="grave" unicode="`" horiz-adv-x="345" 
d="M244 664q39 -5 110 3v-223h-260v199q0 84 75 155q79 74 185 78v-102q-100 -19 -110 -110z" />
    <glyph glyph-name="a" unicode="a" horiz-adv-x="841" 
d="M638 22q-51 -36 -109 -46q-31 -5 -117 -5q-134 0 -231 35q-150 55 -150 182q0 87 101 154q87 58 160 58h263q68 0 68 49q0 95 -202 95q-62 0 -89 -14q-41 -22 -64 -93h-206q30 142 156 210q95 51 218 51q116 0 224 -37q171 -59 171 -186v-388q0 -21 31 -82h-224v17z
M618 259q-41 -13 -146 -13q-7 0 -45.5 2t-43.5 2q-44 0 -86 -12q-58 -17 -58 -48q0 -69 156 -69q182 0 228 58z" />
    <glyph glyph-name="b" unicode="b" horiz-adv-x="922" 
d="M566 -34q-186 0 -298 99q-1 -22 5 -65h-237v890h245v-302q83 68 251 68q162 0 278 -75q141 -92 141 -265q0 -165 -116 -261q-107 -89 -269 -89zM532 482q-82 0 -139 -36q-68 -42 -68 -121q0 -82 87 -137q75 -47 158 -47q89 0 137 49q46 46 46 128t-77 127q-63 37 -144 37
z" />
    <glyph glyph-name="c" unicode="c" horiz-adv-x="872" 
d="M477 -24q-188 0 -305 76q-141 92 -141 280q0 190 141 285q116 76 297 76q52 0 142 -22q120 -29 194 -78q98 -64 98 -151v-42h-245q-6 111 -177 111q-91 0 -147 -43q-62 -47 -62 -136q0 -87 71 -132q57 -37 136 -37q59 0 105 18q74 29 73 98h246v-33q0 -154 -181 -225
q-115 -45 -245 -45z" />
    <glyph glyph-name="d" unicode="d" horiz-adv-x="888" 
d="M662 5v35q-82 -59 -253 -59q-167 0 -275 70q-132 85 -132 256q0 181 136 274q111 75 276 75q163 0 244 -73v307h235v-885h-231zM414 473q-92 0 -144 -38q-60 -43 -60 -131q0 -149 202 -149q78 0 135 29q76 39 76 118t-64 127q-59 44 -145 44z" />
    <glyph glyph-name="e" unicode="e" horiz-adv-x="894" 
d="M238 269q18 -68 98 -111q69 -37 138 -37q57 0 116 22q72 26 91 70h245q-39 -138 -194 -206q-116 -50 -260 -50q-188 0 -314 90q-146 104 -146 295q0 195 145 302q126 93 312 93q156 0 298 -111q155 -121 155 -281v-70zM453 563q-151 0 -212 -133h429q-28 64 -93 100
q-59 33 -124 33z" />
    <glyph glyph-name="f" unicode="f" horiz-adv-x="558" 
d="M417 736q-11 0 -27.5 -26t-16.5 -35v-124h212v-105h-210v-445h-204v442h-115v105h115v136q0 73 46 138q58 78 152 78h220v-164h-172z" />
    <glyph glyph-name="g" unicode="g" horiz-adv-x="903" 
d="M455 -289q-117 0 -251 47q-197 69 -197 198v42h221q10 -155 208 -155q88 0 151 47q71 52 84 151l-1 19q-63 -53 -234 -53q-164 0 -282 70q-152 90 -152 266q0 177 142 264q110 67 270 67q75 0 145 -16q91 -21 140 -63q2 38 -5 97h214v-681q0 -165 -182 -245
q-125 -55 -271 -55zM421 500q-216 0 -216 -159q0 -90 73 -134q58 -35 148 -35q187 0 187 169q0 159 -192 159z" />
    <glyph glyph-name="h" unicode="h" horiz-adv-x="805" 
d="M647 1v364q0 48 -49 80q-42 28 -85 28q-66 0 -132 -43q-75 -50 -75 -120v-309h-207v899h206v-328q71 75 203 75q111 0 211 -71q116 -82 116 -210v-365h-188z" />
    <glyph glyph-name="i" unicode="i" horiz-adv-x="260" 
d="M65 689v201h197v-201h-197zM65 1v627h197v-627h-197z" />
    <glyph glyph-name="j" unicode="j" horiz-adv-x="308" 
d="M60 735v155h241v-155h-241zM74 -240h-148v190q25 -4 45 -4q89 0 89 69v644h241v-702q0 -87 -78 -146q-69 -51 -149 -51z" />
    <glyph glyph-name="k" unicode="k" horiz-adv-x="830" 
d="M585 397l316 -396h-295l-212 280q-66 -51 -122 -100v-180h-207v889h210v-502l372 277h263z" />
    <glyph glyph-name="l" unicode="l" horiz-adv-x="296" 
d="M60 1v889h241v-889h-241z" />
    <glyph glyph-name="m" unicode="m" horiz-adv-x="1333" 
d="M1138 1v426q0 37 -56 64q-44 20 -73 20q-38 0 -88 -15q-76 -24 -76 -67v-428h-222v436q0 44 -64 63q-38 11 -85 11q-54 0 -96 -11q-77 -20 -77 -71v-428h-231v678h224q-5 -22 -7 -37q62 56 199 56q179 0 241 -111q51 56 139 86q74 25 145 25q97 0 198 -67
q117 -78 117 -184v-446h-188z" />
    <glyph glyph-name="n" unicode="n" horiz-adv-x="877" 
d="M671 1v338q0 63 -61 111q-55 42 -109 42q-67 0 -127 -36q-73 -44 -73 -116v-339h-241v658h244q-7 -23 -7 -50q61 70 208 70q139 0 246 -73q128 -87 128 -238v-367h-208z" />
    <glyph glyph-name="o" unicode="o" horiz-adv-x="910" 
d="M477 -34q-191 0 -305 78q-136 93 -136 286t136 290q116 83 305 83t309 -83q141 -97 141 -288q0 -198 -151 -293q-117 -73 -299 -73zM477 511q-94 0 -165 -40q-88 -50 -88 -141q0 -88 87 -139q72 -42 166 -42q87 0 166 38q105 51 105 145q0 88 -100 139q-80 40 -171 40z
" />
    <glyph glyph-name="p" unicode="p" horiz-adv-x="940" 
d="M551 -2q-101 0 -247 64v-307h-210v923h208q-7 -49 -5 -81q87 82 245 82q166 0 283 -82q136 -96 136 -268q0 -165 -142 -256q-115 -75 -268 -75zM546 518q-80 0 -157 -52q-88 -59 -88 -139q0 -81 94 -123q69 -31 151 -31q85 0 145 30q81 42 81 126q0 79 -73 136
q-69 53 -153 53z" />
    <glyph glyph-name="q" unicode="q" horiz-adv-x="910" 
d="M653 -245v292q-80 -77 -241 -77q-157 0 -279 88q-141 102 -141 269q0 178 151 278q126 83 293 83q156 0 225 -72q1 27 -6 67h262v-928h-264zM431 500q-79 0 -148 -43q-83 -51 -83 -132t63 -133t149 -52q77 0 153 43q96 54 96 142q0 82 -77 132q-67 43 -153 43z" />
    <glyph glyph-name="r" unicode="r" horiz-adv-x="595" 
d="M574 459q-24 19 -37.5 24t-43.5 5q-64 0 -118 -25q-74 -33 -74 -95v-367h-207v654h210q-6 -22 -7 -39q36 40 81 53q33 10 96 10q54 0 63 -2q37 -9 101 -57l4 -216z" />
    <glyph glyph-name="s" unicode="s" horiz-adv-x="817" 
d="M675 -4q-85 -25 -237 -25q-132 0 -225 31q-162 52 -162 184v32h233q10 -64 55 -84q28 -13 101 -13q65 0 89 6q51 13 51 59q0 45 -59 66q-31 11 -98 19q-32 3 -97 9q-128 12 -186 40q-90 42 -90 138q0 139 143 202q98 43 231 43q120 0 214 -36q149 -56 149 -183v-42h-233
q-26 106 -138 106q-34 0 -87 -20q-71 -27 -71 -68q0 -15 23 -22q14 -5 57 -11q102 -9 204 -19q135 -17 205 -59q94 -56 94 -166q0 -138 -166 -187z" />
    <glyph glyph-name="t" unicode="t" horiz-adv-x="508" 
d="M373 548v-329q0 -29 29 -46q26 -15 66 -15q20 0 40 4v-176h-105q-68 0 -166 79q-105 84 -105 160v321h-134v118h134v197h241v-194h173v-119h-173z" />
    <glyph glyph-name="u" unicode="u" horiz-adv-x="873" 
d="M641 -1q6 37 6 62q-48 -60 -103 -82q-42 -18 -106 -18q-132 0 -227 67q-112 79 -112 218v413h202v-414q0 -47 56 -81q48 -30 93 -30q53 0 112 29q76 36 76 92v404h240v-660h-237z" />
    <glyph glyph-name="v" unicode="v" horiz-adv-x="783" 
d="M502 0h-195l-342 625h225l207 -414l213 414h239z" />
    <glyph glyph-name="w" unicode="w" horiz-adv-x="1259" 
d="M1023 0h-174l-169 455l-196 -455h-198l-216 611h218l113 -407l199 407h163l159 -403l153 403h219z" />
    <glyph glyph-name="x" unicode="x" horiz-adv-x="813" 
d="M625 1l-170 245l-175 -245h-266l288 375l-246 302h243l156 -205l156 205h253l-265 -302l297 -375h-271z" />
    <glyph glyph-name="y" unicode="y" horiz-adv-x="755" 
d="M633 259q-18 -42 -37 -84q-44 -94 -89 -171q-147 -249 -265 -249h-278v173h221q38 0 104 122l-329 609h210l203 -406l203 406h252q-8 -18 -195 -400z" />
    <glyph glyph-name="z" unicode="z" horiz-adv-x="713" 
d="M22 6v145l443 335h-424v173h659v-145l-388 -335h403v-173h-693z" />
    <glyph glyph-name="nonbreakingspace" unicode="&#xa0;" horiz-adv-x="439" 
 />
    <glyph glyph-name="emdash" unicode="&#x2014;" horiz-adv-x="1235" 
d="M-12 275v153h1251v-153h-1251z" />
    <glyph glyph-name="quoteleft" unicode="&#x2018;" horiz-adv-x="342" 
d="M209 663q48 1 145 4v-185h-260v162q0 84 75 154q79 74 185 78v-103q-46 -3 -96.5 -40t-48.5 -70z" />
    <glyph glyph-name="quoteright" unicode="&#x2019;" horiz-adv-x="334" 
d="M94 443v135q102 7 110 75q-52 5 -110 -3v192h260v-168q0 -82 -76 -153q-80 -74 -184 -78z" />
    <glyph glyph-name="quotedblleft" unicode="&#x201c;" horiz-adv-x="655" 
d="M407 444v199q0 80 56 156q68 91 171 91h32v-108q-12 3 -25 3q-47 0 -79 -43q-29 -38 -34 -89q6 1 11 1q13 0 128 3v-213h-260zM60 444v213q0 75 55 142q62 78 153 78h52v-106q-55 4 -97 -25t-42 -65v-12h168v-225h-289z" />
    <glyph glyph-name="quotedblright" unicode="&#x201d;" horiz-adv-x="652" 
d="M407 442v118q7 -4 21 -4q28 0 58.5 17t30.5 39v94q-41 3 -95 -2v172h245v-215q0 -84 -59 -141q-69 -66 -201 -78zM113 443h-53v101q71 25 93 62q18 28 18 88v11h-111v171h260v-210q0 -77 -55 -145q-62 -78 -152 -78z" />
    <glyph glyph-name="bullet" unicode="&#x2022;" horiz-adv-x="556" 
d="M308 217q-97 0 -165.5 67.5t-68.5 153.5q0 92 73 158q70 64 161 64q97 0 167 -69q67 -66 67 -153q0 -92 -71 -156.5t-163 -64.5z" />
  </font>
</defs>
</svg>
